<svg xmlns="http://www.w3.org/2000/svg" viewBox="0 0 128 128"><title>emoji_sarcasm</title><path d="M64,9.56C1.59,9.56.12,79.52.12,93.36c0,13.86,28.59,25.08,63.88,25.08,35.28,0,63.88-11.22,63.88-25.08C127.88,79.52,126.4,9.56,64,9.56Z" fill="#fcc21b"/><path d="M95.72647,89.98112c-.29173,3.54785-11.45762,5.03463-29.20182,7.39734-15.08859,2.00911-31.09844,4.14088-32.615-.47575-1.30636-3.97674,8.2649-12.58455,18.20373-16.3402C72.37971,72.90436,96.16321,84.66978,95.72647,89.98112Z" fill="#7f0040" stroke="#000" stroke-miterlimit="10" stroke-width="0.20619"/><path d="M97.14812,90.08291c-.056,3.00889-12.48665,5.32834-15.45369,5.882a68.9463,68.9463,0,0,1-13.088,1.14142c-23.79463.09373-31.68058,2.89626-32.23079.81429-.90862-3.43821,14.79465-13.53392,32.23079-14.861C82.83631,81.97645,97.20858,86.83191,97.14812,90.08291Z" fill="#bf005b" stroke="#000" stroke-miterlimit="10" stroke-width="0.19881"/><path d="M96.53475,91.09575c-1.07205,6.12185-27.35889,7.56788-30.92607,7.75269-.2158.01118-.53792.02788-.95187.04752-3.69087.17512-29.90895,1.34956-31.70641-4.8211C31.04887,87.54693,57.662,76.85679,61.21523,77.76115a11.56748,11.56748,0,0,0,5.87829,0C70.594,76.87105,97.655,84.69843,96.53475,91.09575Z" fill="none" stroke="#d4145a" stroke-miterlimit="10" stroke-width="3.99161"/><ellipse cx="43.79004" cy="47.44172" rx="12.78728" ry="7.4306" fill="#fff" stroke="#000" stroke-miterlimit="10" stroke-width="0.17755"/><path d="M34.33713,42.45249a5.75413,5.75413,0,0,0,11.49524-.54389,6.14333,6.14333,0,0,0-.29651-1.82049c-.57111-.04535-1.14972-.077-1.74225-.077A17.88243,17.88243,0,0,0,34.33713,42.45249Z" fill="#2f2f2f"/><ellipse cx="84.04982" cy="47.44172" rx="12.78728" ry="7.4306" fill="#fff" stroke="#000" stroke-miterlimit="10" stroke-width="0.17755"/><path d="M88.72534,40.53842a21.00783,21.00783,0,0,0-4.71112-.52728,19.99271,19.99271,0,0,0-6.68262,1.10425,5.73524,5.73524,0,0,0,11.39374-.577Z" fill="#2f2f2f"/><path d="M28.13167,43.12856c.41971.51848,4.56653-4.793,12.04271-5.80783,7.49046-1.0168,14.01875,2.8637,14.7758,1.36654.3275-.64766-.69552-1.76684-1.11032-2.22064-3.31625-3.628-9.48235-3.75978-13.66548-2.73309C32.3513,35.6536,27.66885,42.55683,28.13167,43.12856Z" stroke="#000" stroke-miterlimit="10" stroke-width="0.17755"/><path d="M99.744,43.92205c-.41971.51847-4.56652-4.793-12.0427-5.80783-7.49046-1.0168-14.01875,2.8637-14.7758,1.36654-.3275-.64766.69551-1.76684,1.11032-2.22064,3.31624-3.628,9.48235-3.75978,13.66548-2.73309C95.52432,36.44709,100.20677,43.35032,99.744,43.92205Z" stroke="#000" stroke-miterlimit="10" stroke-width="0.17755"/></svg>
