<?xml version="1.0" encoding="utf-8"?>
<!-- Generator: Adobe Illustrator 23.0.1, SVG Export Plug-In . SVG Version: 6.00 Build 0)  -->
<svg version="1.1" id="Layer_1" xmlns="http://www.w3.org/2000/svg" xmlns:xlink="http://www.w3.org/1999/xlink" x="0px" y="0px"
	 viewBox="0 0 128 128" style="enable-background:new 0 0 128 128;" xml:space="preserve">
<style type="text/css">
	.st0{fill:#FCC21B;}
	.st1{fill:#7F0040;stroke:#000000;stroke-width:0.2062;stroke-miterlimit:10;}
	.st2{fill:#BF005B;stroke:#000000;stroke-width:0.1988;stroke-miterlimit:10;}
	.st3{fill:none;stroke:#D4145A;stroke-width:3.9916;stroke-miterlimit:10;}
	.st4{fill:#FFFFFF;stroke:#000000;stroke-width:0.1776;stroke-miterlimit:10;}
	.st5{fill:#2F2F2F;}
	.st6{stroke:#000000;stroke-width:0.1776;stroke-miterlimit:10;}
</style>
<path class="st0" d="M64,9.6c-62.4,0-63.9,70-63.9,83.8c0,13.9,28.6,25.1,63.9,25.1c35.3,0,63.9-11.2,63.9-25.1
	C127.9,79.5,126.4,9.6,64,9.6z"/>
<g>
	<path class="st1" d="M95.7,90c-0.3,3.5-11.5,5-29.2,7.4c-15.1,2-31.1,4.1-32.6-0.5c-1.3-4,8.3-12.6,18.2-16.3
		C72.4,72.9,96.2,84.7,95.7,90z"/>
	<path class="st2" d="M97.1,90.1c-0.1,3-12.5,5.3-15.5,5.9c-6.1,1.1-10.8,1.1-13.1,1.1c-23.8,0.1-31.7,2.9-32.2,0.8
		c-0.9-3.4,14.8-13.5,32.2-14.9C82.8,82,97.2,86.8,97.1,90.1z"/>
	<path class="st3" d="M96.5,91.1c-1.1,6.1-27.4,7.6-30.9,7.8c-0.2,0-0.5,0-1,0c-3.7,0.2-29.9,1.3-31.7-4.8
		C31,87.5,57.7,76.9,61.2,77.8c0.2,0,1.3,0.4,2.8,0.4c1.6,0,2.9-0.3,3-0.4C70.6,76.9,97.7,84.7,96.5,91.1z"/>
</g>
<g>
	<ellipse class="st4" cx="43.8" cy="47.4" rx="12.8" ry="7.4"/>
	<path class="st5" d="M34.5,42.5c0.3,3.1,2.8,5.5,5.8,5.5c3.2,0,5.7-2.7,5.7-6c0-0.6-0.1-1.2-0.3-1.8C45.2,40,44.6,40,44,40
		C40.2,40,36.9,41,34.5,42.5z"/>
	<ellipse class="st4" cx="84" cy="47.4" rx="12.8" ry="7.4"/>
	<path class="st5" d="M88.7,40.5c-1.5-0.3-3-0.5-4.7-0.5c-2.5,0-4.7,0.4-6.7,1.1c0.5,2.8,2.9,4.9,5.7,4.9
		C86,45.9,88.5,43.6,88.7,40.5z"/>
	<path class="st6" d="M28.1,43.1c0.4,0.5,4.6-4.8,12-5.8c7.5-1,14,2.9,14.8,1.4c0.3-0.6-0.7-1.8-1.1-2.2c-3.3-3.6-9.5-3.8-13.7-2.7
		C32.4,35.7,27.7,42.6,28.1,43.1z"/>
	<path class="st6" d="M99.7,43.9c-0.4,0.5-4.6-4.8-12-5.8c-7.5-1-14,2.9-14.8,1.4c-0.3-0.6,0.7-1.8,1.1-2.2
		c3.3-3.6,9.5-3.8,13.7-2.7C95.5,36.4,100.2,43.4,99.7,43.9z"/>
</g>
</svg>
